<svg xmlns="http://www.w3.org/2000/svg" height="48" viewBox="0 -960 960 960" width="48"><path d="M480-57q-29 0-51-13t-31-37h-14q-30-2-48-24t-18-47.969v-151.475Q252-375 213.5-444T175-597.904q0-127.299 89.182-216.197Q353.365-903 480.182-903 607-903 696-813.875q89 89.126 89 215.861Q785-512 746.5-443.5 708-375 642-330.444v151.475Q642-153 624-131t-48 24h-14q-9 24-31 37t-51 13Zm-89-122h178v-44H391v44Zm0-87h178v-40H391v40Zm-9-113h71v-133l-94-94 36-36 85 85 85-85 36 36-94 94v133h71q60-28 97-87.479t37-131.077q0-97.834-67.386-165.139T480.114-830Q383-830 315.5-762.865 248-695.731 248-597.816q0 71.656 37 131.236Q322-407 382-379Zm98-178Zm0-48Z"/></svg>